<?xml version="1.0" encoding="utf-8"?>
<svg xmlns="http://www.w3.org/2000/svg"
	xmlns:xlink="http://www.w3.org/1999/xlink"
	width="59px" height="59px" viewBox="0 0 59 59">
<path fillRule="evenodd" d="M 29.23 58.58C 13.26 58.58 0.32 45.63 0.32 29.66 0.32 13.69 13.26 0.75 29.23 0.75 45.2 0.75 58.14 13.69 58.14 29.66 58.14 45.63 45.2 58.58 29.23 58.58ZM 29.23 4.36C 15.26 4.36 3.93 15.69 3.93 29.66 3.93 43.64 15.26 54.96 29.23 54.96 43.2 54.96 54.53 43.64 54.53 29.66 54.53 15.69 43.2 4.36 29.23 4.36ZM 47.3 31.47C 47.3 31.47 47.3 27.86 47.3 27.86 47.3 27.86 50.92 27.86 50.92 27.86 50.92 27.86 50.92 31.47 50.92 31.47 50.92 31.47 47.3 31.47 47.3 31.47ZM 42.24 44.47C 42.24 44.47 39.68 41.91 39.68 41.91 39.68 41.91 42.24 39.36 42.24 39.36 42.24 39.36 44.79 41.91 44.79 41.91 44.79 41.91 42.24 44.47 42.24 44.47ZM 40.21 15.7C 40.21 15.7 42.71 13.19 42.71 13.19 42.71 13.19 45.21 15.7 45.21 15.7 45.21 15.7 42.71 18.21 42.71 18.21 42.71 18.21 40.21 15.7 40.21 15.7ZM 27.42 47.73C 27.42 47.73 31.04 47.73 31.04 47.73 31.04 47.73 31.04 51.35 31.04 51.35 31.04 51.35 27.42 51.35 27.42 51.35 27.42 51.35 27.42 47.73 27.42 47.73ZM 29.23 31.51C 29.23 31.51 12.96 31.51 12.96 31.51 11.97 31.51 11.16 30.7 11.16 29.71 11.16 28.71 11.97 27.9 12.96 27.9 12.96 27.9 27.42 27.9 27.42 27.9 27.42 27.9 27.42 9.79 27.42 9.79 27.42 8.79 28.23 7.98 29.23 7.98 30.23 7.98 31.04 8.79 31.04 9.79 31.04 9.79 31.04 29.71 31.04 29.71 31.04 30.7 30.23 31.51 29.23 31.51ZM 12.72 15.79C 12.72 15.79 15.27 13.23 15.27 13.23 15.27 13.23 17.83 15.79 17.83 15.79 17.83 15.79 15.27 18.35 15.27 18.35 15.27 18.35 12.72 15.79 12.72 15.79ZM 17.48 42.01C 17.48 42.01 14.98 44.52 14.98 44.52 14.98 44.52 12.48 42.01 12.48 42.01 12.48 42.01 14.98 39.5 14.98 39.5 14.98 39.5 17.48 42.01 17.48 42.01Z" fill="rgb(183,139,87)"/></svg>