<?xml version="1.0" encoding="utf-8"?>
<svg xmlns="http://www.w3.org/2000/svg"
	xmlns:xlink="http://www.w3.org/1999/xlink"
	width="59px" height="58px" viewBox="0 0 59 58">
<path fillRule="evenodd" d="M 58.55 47.06C 58.55 47.06 52.83 48.21 47.03 49.4 43.17 53.7 39.32 58 39.32 58 39.32 58 31.03 43.86 31.03 43.86 30.56 43.89 30.09 43.93 29.62 43.93 29.14 43.93 28.68 43.89 28.21 43.86 28.21 43.86 19.92 58 19.92 58 19.92 58 16.07 53.7 12.2 49.4 6.4 48.21 0.69 47.06 0.69 47.06 0.69 47.06 9.7 31.68 9.7 31.68 8.25 28.77 7.41 25.51 7.41 22.05 7.41 9.97 17.35 0.17 29.62 0.17 41.88 0.17 51.82 9.97 51.82 22.05 51.82 25.51 50.99 28.77 49.53 31.68 49.53 31.68 58.55 47.06 58.55 47.06ZM 39.75 51.44C 39.75 51.44 42.52 48.81 45.13 46.27 48.83 45.22 52.57 44.15 52.57 44.15 52.57 44.15 47.33 35.21 47.33 35.21 44.31 39.15 39.97 42.04 34.96 43.26 34.96 43.26 39.75 51.44 39.75 51.44ZM 6.67 44.15C 6.67 44.15 10.4 45.22 14.1 46.27 16.71 48.81 19.49 51.44 19.49 51.44 19.49 51.44 24.28 43.26 24.28 43.26 19.26 42.04 14.93 39.15 11.91 35.21 11.91 35.21 6.67 44.15 6.67 44.15ZM 29.62 3.76C 19.65 3.76 11.56 11.86 11.56 21.85 11.56 31.84 19.65 39.94 29.62 39.94 39.59 39.94 47.67 31.84 47.67 21.85 47.67 11.86 39.59 3.76 29.62 3.76ZM 29.62 34.51C 22.63 34.51 16.97 28.84 16.97 21.86 16.97 14.87 22.63 9.21 29.62 9.21 36.6 9.21 42.27 14.87 42.27 21.86 42.27 28.84 36.6 34.51 29.62 34.51ZM 29.62 12.82C 24.63 12.82 20.58 16.87 20.58 21.86 20.58 26.85 24.63 30.89 29.62 30.89 34.61 30.89 38.65 26.85 38.65 21.86 38.65 16.87 34.61 12.82 29.62 12.82Z" fill="rgb(183,139,87)"/></svg>