<?xml version="1.0" encoding="utf-8"?>
<svg xmlns="http://www.w3.org/2000/svg"
	xmlns:xlink="http://www.w3.org/1999/xlink"
	width="65px" height="65px" viewBox="0 0 65 65">
<path fillRule="evenodd" d="M 48.35 41.08C 48.35 41.08 52.16 64.39 52.16 64.39 52.16 64.39 32.22 53.38 32.22 53.38 32.22 53.38 12.28 64.39 12.28 64.39 12.28 64.39 16.09 41.08 16.09 41.08 16.09 41.08 0.01 24.62 0.01 24.62 0.01 24.62 22.23 21.23 22.23 21.23 22.23 21.23 32.22-0.03 32.22-0.03 32.22-0.03 42.21 21.23 42.21 21.23 42.21 21.23 64.42 24.62 64.42 24.62 64.42 24.62 48.35 41.08 48.35 41.08ZM 39.71 24.77C 39.71 24.77 32.22 8.65 32.22 8.65 32.22 8.65 24.66 24.77 24.66 24.77 24.66 24.77 7.25 27.03 7.25 27.03 7.25 27.03 20.12 40.17 20.12 40.17 20.12 40.17 17.27 57.09 17.27 57.09 17.27 57.09 32.22 48.71 32.22 48.71 32.22 48.71 46.98 57.15 46.98 57.15 46.98 57.15 44.32 40.24 44.32 40.24 44.32 40.24 57.07 27.23 57.07 27.23 57.07 27.23 39.71 24.77 39.71 24.77Z" fill="rgb(183,139,87)"/></svg>