<?xml version="1.0" standalone="no"?>
<!DOCTYPE svg PUBLIC "-//W3C//DTD SVG 20010904//EN"
 "http://www.w3.org/TR/2001/REC-SVG-20010904/DTD/svg10.dtd">
<svg version="1.0" xmlns="http://www.w3.org/2000/svg"
 width="173.000000pt" height="231.000000pt" viewBox="0 0 173.000000 231.000000"
 preserveAspectRatio="xMidYMid meet">

<g transform="translate(0.000000,231.000000) scale(0.100000,-0.100000)"
fill="#000000" stroke="none">
<path d="M691 2300 c-333 -70 -590 -309 -671 -624 -15 -58 -20 -111 -20 -201
0 -138 20 -235 71 -344 17 -36 191 -304 387 -596 l357 -530 46 -3 c34 -2 49 2
61 15 44 51 713 1062 738 1115 95 204 96 482 1 685 -104 221 -286 379 -531
458 -75 25 -103 28 -240 31 -85 2 -175 -1 -199 -6z"/>
</g>
</svg>
